<svg class="img-fluid" id="outputsvg" xmlns="http://www.w3.org/2000/svg" style="transform-origin: 50% 50%; cursor: move; transition: transform 200ms ease-in-out 0s;" width="1213" height="426" viewBox="0 0 12130 4260"><g id="lSNk8ZgruPZNaYO1VR1Xz8" fill="rgb(255,255,255)" style="transform: none;"><g><path id="pAPgphhmM" d="M480 4252 c-21 -6 -59 -75 -253 -461 l-228 -453 3 -742 3 -741 24 -60 c17 -43 41 -77 85 -121 77 -76 144 -104 246 -104 l70 0 0 -662 c1 -606 2 -667 18 -714 20 -58 52 -100 102 -136 75 -54 55 -53 880 -53 l765 0 57 28 c65 32 101 70 135 143 l23 51 -2 1489 -3 1489 -22 41 c-44 83 -146 154 -220 154 l-33 0 0 183 0 182 -74 220 c-92 273 -82 252 -118 264 -34 12 -1413 14 -1458 3z m238 -489 l-3 -358 -46 -6 c-65 -10 -120 -41 -168 -95 -73 -83 -71 -58 -71 -876 l0 -728 -51 0 c-104 0 -179 43 -218 123 -21 43 -21 53 -21 775 l0 732 197 395 198 395 93 0 92 0 -2 -357z m849 280 c-6 -87 -26 -148 -70 -210 -56 -79 -176 -143 -267 -143 -22 0 -48 -8 -61 -19 l-24 -19 -5 -489 -5 -488 -27 -57 c-33 -71 -103 -142 -171 -174 -97 -45 -87 -138 -87 826 l0 850 361 0 362 0 -6 -77z m365 -103 l58 -175 0 -182 0 -183 -357 2 -358 3 -3 77 -3 76 40 7 c64 11 172 68 231 122 102 94 158 223 159 366 l1 68 87 -3 86 -3 59 -175z m-1212 -885 l0 -215 -81 0 -81 0 4 163 c3 140 6 167 23 196 22 37 76 71 112 71 l23 0 0 -215z m1479 197 c70 -35 76 -54 79 -243 l3 -169 -506 0 -506 0 3 73 3 72 143 3 142 3 0 64 0 65 -145 0 -145 0 0 75 0 75 448 0 c406 0 450 -2 481 -18z m-1479 -744 c0 -164 2 -194 17 -210 9 -10 24 -18 33 -18 13 0 20 -14 28 -52 35 -173 148 -338 291 -423 28 -17 51 -32 51 -35 0 -3 -13 -14 -29 -23 -56 -33 -147 -135 -183 -204 -167 -317 -10 -696 332 -804 85 -27 222 -29 305 -5 194 57 342 203 399 395 20 69 21 217 1 291 -33 123 -116 244 -214 311 -28 19 -51 36 -51 39 0 3 21 17 48 32 112 64 217 190 266 320 34 91 46 192 46 399 l0 179 110 0 110 0 0 -1222 c0 -1365 5 -1266 -69 -1315 l-34 -23 -754 0 c-830 0 -788 -3 -835 62 l-23 33 -3 1233 -2 1232 80 0 80 0 0 -192z m1200 -26 c0 -172 -3 -230 -16 -273 -50 -167 -168 -289 -334 -345 -75 -25 -225 -25 -300 0 -172 58 -303 203 -339 375 -6 30 -10 55 -9 56 2 1 34 16 71 33 126 58 234 191 267 330 l11 42 324 0 325 0 0 -218z m-397 -787 c80 -21 131 -49 190 -103 61 -58 90 -103 117 -181 56 -166 -6 -368 -145 -473 -109 -83 -261 -109 -394 -69 -215 65 -343 295 -286 514 22 84 51 134 114 197 111 111 259 153 404 115z"></path><path id="p4vbHcW2G" d="M1280 355 l0 -65 140 0 140 0 0 65 0 65 -140 0 -140 0 0 -65z"></path><path id="p1BUfyFTTH" d="M1710 355 l0 -65 65 0 65 0 0 65 0 65 -65 0 -65 0 0 -65z"></path><path id="pcTdhpEG9" d="M1317 1540 c-40 -10 -137 -57 -137 -66 0 -4 34 -57 65 -102 1 -1 22 7 48 18 25 11 71 23 104 26 54 6 101 -4 183 -39 22 -10 86 89 70 108 -37 45 -240 78 -333 55z"></path><path id="p1T0jtNDY" d="M3760 2125 l0 -1555 40 0 40 0 0 1555 0 1555 -40 0 -40 0 0 -1555z"></path><path id="pYPXhu02R" d="M5745 2875 c-31 -16 -65 -50 -65 -66 0 -4 9 -13 21 -20 17 -9 25 -7 42 9 59 54 143 29 122 -37 -3 -11 -32 -30 -70 -46 -76 -32 -105 -63 -105 -112 0 -76 92 -121 174 -84 58 25 74 53 41 71 -21 11 -28 11 -42 -2 -27 -23 -51 -28 -79 -18 -20 8 -25 16 -22 38 3 23 14 32 75 62 40 19 79 44 87 55 20 27 20 85 0 114 -33 47 -122 65 -179 36z"></path><path id="pnZqHR7D1" d="M6477 2875 c-106 -37 -155 -157 -108 -261 44 -96 172 -137 269 -85 21 11 21 13 6 37 -13 19 -21 23 -38 17 -41 -15 -113 -9 -136 12 -26 23 -50 74 -50 106 0 35 31 89 61 104 41 22 101 19 133 -6 40 -32 34 -49 -19 -49 -43 0 -45 -1 -45 -30 l0 -30 80 0 c76 0 80 1 80 23 0 73 -54 148 -121 167 -44 13 -66 12 -112 -5z"></path><path id="pR9s4yc5E" d="M8456 2875 c-49 -17 -102 -69 -117 -113 -19 -57 -7 -137 27 -179 110 -135 328 -78 342 91 6 71 -11 117 -58 160 -59 53 -123 67 -194 41z m125 -71 c53 -27 73 -106 44 -168 -41 -87 -169 -87 -210 0 -54 115 55 226 166 168z"></path><path id="paPAM4cPv" d="M8996 2875 c-175 -62 -167 -314 12 -360 51 -14 111 -7 154 16 20 11 20 11 -2 34 -19 20 -25 21 -55 13 -103 -32 -188 56 -156 163 23 75 133 107 186 54 36 -35 31 -45 -20 -45 -43 0 -45 -1 -45 -30 l0 -30 80 0 c89 0 90 0 69 73 -14 52 -60 101 -107 115 -49 15 -67 15 -116 -3z"></path><path id="pUN8ozsug" d="M4320 2695 l0 -185 35 0 35 0 0 155 0 155 75 0 75 0 0 30 0 30 -110 0 -110 0 0 -185z"></path><path id="pusexmAPw" d="M4700 2695 l0 -185 110 0 110 0 0 30 0 30 -75 0 -75 0 0 45 0 45 60 0 60 0 0 35 0 35 -60 0 -60 0 0 45 0 45 80 0 80 0 0 30 0 30 -115 0 -115 0 0 -185z"></path><path id="pZ47uzrZf" d="M5170 2725 l0 -155 -45 0 c-43 0 -45 -1 -45 -30 l0 -30 130 0 130 0 0 29 c0 28 -2 30 -47 33 l-48 3 -3 153 -3 152 -34 0 -35 0 0 -155z"></path><path id="pIqOYjm0K" d="M6870 2695 l0 -185 115 0 115 0 0 30 0 30 -80 0 -80 0 0 45 0 45 60 0 60 0 0 35 0 35 -60 0 -60 0 0 45 0 45 80 0 80 0 0 30 0 30 -115 0 -115 0 0 -185z"></path><path id="pibUgo07E" d="M7350 2725 l0 -155 -50 0 c-49 0 -50 -1 -50 -30 l0 -30 130 0 130 0 0 30 c0 29 -2 30 -45 30 l-45 0 0 155 0 155 -35 0 -35 0 0 -155z"></path><path id="pwJxwL3Nn" d="M8010 2725 l0 -155 -45 0 c-43 0 -45 -1 -45 -30 l0 -30 130 0 130 0 0 30 c0 29 -1 30 -50 30 l-50 0 0 155 0 155 -35 0 -35 0 0 -155z"></path><path id="pe93xTD8c" d="M9390 2695 l0 -185 110 0 110 0 0 30 0 30 -75 0 -75 0 0 45 0 45 60 0 60 0 0 35 0 35 -60 0 -60 0 0 45 0 45 80 0 80 0 0 30 0 30 -115 0 -115 0 0 -185z"></path><path id="p1DVKGr6gK" d="M9860 2725 l0 -155 -45 0 c-43 0 -45 -1 -45 -30 l0 -30 130 0 130 0 0 29 c0 28 -2 30 -47 33 l-48 3 -3 153 -3 152 -34 0 -35 0 0 -155z"></path><path id="pl7p631QD" d="M10190 2695 l0 -185 35 0 35 0 0 75 0 75 80 0 80 0 0 -75 0 -75 35 0 35 0 0 185 0 185 -35 0 -35 0 0 -75 0 -75 -80 0 -80 0 0 75 0 75 -35 0 -35 0 0 -185z"></path><path id="pL9voQzcT" d="M10660 2695 l0 -185 115 0 115 0 0 30 0 30 -80 0 -80 0 0 45 0 45 60 0 60 0 0 35 0 35 -60 0 -60 0 0 45 0 45 80 0 80 0 0 30 0 30 -115 0 -115 0 0 -185z"></path><path id="p18NR9ct87" d="M11050 2695 l0 -185 83 0 c101 0 144 18 171 73 24 49 15 101 -24 137 l-29 27 40 62 c21 34 39 64 39 66 0 3 -15 5 -33 5 -28 0 -36 -7 -70 -60 -34 -55 -40 -60 -72 -60 l-35 0 0 60 0 60 -35 0 -35 0 0 -185z m158 -6 c17 -6 34 -20 37 -31 17 -51 -21 -88 -90 -88 l-35 0 0 65 c0 65 0 65 29 65 15 0 42 -5 59 -11z"></path><path id="poTtuZZTK" d="M11490 2865 c-20 -24 0 -50 36 -50 26 0 29 4 29 30 0 25 -4 31 -26 33 -15 2 -31 -4 -39 -13z"></path><path id="pSe0HJ4XP" d="M5480 2555 c0 -45 0 -45 35 -45 35 0 35 0 35 45 0 45 0 45 -35 45 -35 0 -35 0 -35 -45z"></path><path id="phi9doCF1" d="M2918 2194 c-27 -13 -48 -26 -48 -28 0 -3 14 -39 31 -81 117 -293 115 -618 -5 -918 -16 -38 -26 -70 -24 -71 1 -2 27 -15 55 -30 l53 -26 21 41 c38 76 88 246 105 361 36 244 -4 526 -107 751 -15 33 -21 33 -81 1z"></path><path id="p122XncPUL" d="M4530 1840 l0 -340 -105 0 -105 0 0 -75 0 -75 290 0 290 0 0 75 0 75 -105 0 -105 0 0 340 0 340 -80 0 -80 0 0 -340z"></path><path id="p148BYimFg" d="M5030 1765 l0 -415 255 0 255 0 0 75 0 75 -170 0 -170 0 0 90 0 90 130 0 130 0 0 75 0 75 -130 0 -130 0 0 95 0 95 175 0 175 0 0 80 0 80 -260 0 -260 0 0 -415z"></path><path id="p9VlHlEKW" d="M5620 2174 c0 -4 82 -190 182 -415 l181 -409 77 0 76 0 182 408 c100 224 182 410 182 415 0 4 -38 7 -84 7 l-83 0 -33 -75 -33 -75 -207 0 -207 0 -33 75 -33 75 -83 0 c-46 0 -84 -3 -84 -6z m580 -293 c0 -9 -124 -304 -136 -323 -6 -9 -144 302 -144 323 0 5 63 9 140 9 78 0 140 -4 140 -9z"></path><path id="pZko0PHmH" d="M6610 1765 l0 -415 84 0 83 0 138 300 c76 165 140 298 144 296 3 -2 67 -137 141 -300 l135 -296 83 0 82 0 0 415 0 415 -85 0 -85 0 0 -227 c0 -148 -4 -223 -10 -213 -5 8 -51 111 -102 228 l-93 212 -70 0 -70 0 -95 -220 c-52 -121 -98 -220 -102 -220 -5 0 -8 99 -8 220 l0 220 -85 0 -85 0 0 -415z"></path><path id="pMAxyIYDg" d="M7650 1765 l0 -416 85 3 86 3 136 297 c75 164 139 296 142 293 4 -2 67 -137 141 -299 l135 -296 83 0 82 0 0 415 0 415 -85 0 -85 0 -2 -227 -3 -228 -99 228 -100 227 -70 0 -71 0 -95 -220 c-52 -121 -98 -220 -102 -220 -4 0 -8 99 -8 220 l0 220 -85 0 -85 0 0 -415z"></path><path id="puw8h6czE" d="M8690 1765 l0 -415 255 0 255 0 0 75 0 75 -170 0 -170 0 0 90 0 90 130 0 130 0 0 75 0 75 -130 0 -130 0 0 95 0 95 175 0 175 0 0 80 0 80 -260 0 -260 0 0 -415z"></path><path id="pb2X0B2bq" d="M9350 1765 l0 -415 255 0 255 0 0 75 0 75 -175 0 -175 0 0 90 0 90 130 0 130 0 0 75 0 75 -130 0 -130 0 0 95 0 95 180 0 180 0 0 80 0 80 -260 0 -260 0 0 -415z"></path><path id="pZIYRfnnD" d="M10190 1840 l0 -340 -105 0 -105 0 0 -75 0 -75 290 0 290 0 0 75 0 75 -105 0 -105 0 0 340 0 340 -80 0 -80 0 0 -340z"></path><path id="pGSovdKir" d="M2650 1989 c-25 -16 -49 -30 -55 -32 -5 -2 3 -31 18 -65 73 -163 74 -350 1 -513 -16 -35 -23 -63 -18 -68 5 -5 30 -20 56 -35 l47 -27 20 40 c103 200 107 456 13 653 l-37 76 -45 -29z"></path></g></g></svg>